# xmcd CD database file
#
# Track frame offsets:
#	150
#	12732
#	25350
#	38125
#	51860
#	66870
#	79680
#	92325
#	104785
#	118387
#	132870
#	148515
#	163792
#	178340
#	193977
#	207770
#	224140
#	237167
#	250487
#	261882
#	274827
#	286657
#	301792
#	314977
#	327947
#
# Disc length: 4563 seconds
#
# Revision: 0
# Processed by: cddbd v1.4PL0 Copyright (c) Steve Scherf et al.
# Submitted via: CDex 1.40Beta8
#
DISCID=8d11d119
DTITLE=Tampa Red - Slide Guitar Classics
DYEAR=1900
DGENRE=Blues
TTITLE0=Through Train Blues
TTITLE1=It's Tight Like That
TTITLE2=Beedle Um Bum
TTITLE3=Voice Of The Blues
TTITLE4=You Got To Reap What You Sow
TTITLE5=House Rent Scuffle
TTITLE6=I Wonder Where My Easy Rider's Gone
TTITLE7=Blue Moanin' Blues
TTITLE8=Black Heated Blues
TTITLE9=Boogie Woogie Dance
TTITLE10=Bumble Bee Blues
TTITLE11=If I Let You Get Away With It (You'll Do It All The Time)
TTITLE12=I'll Find My Way
TTITLE13=Black Angel Blues
TTITLE14=Grievin' And Worryin' Blues
TTITLE15=You Missed A Good Man
TTITLE16=Anna Lou Blues
TTITLE17=Don't You Lie Yo Me
TTITLE18=It Hurt Me Too
TTITLE19=Georgia, Georgia Blues
TTITLE20=Let Me Play With Your Poodle
TTITLE21=She Want To Sell My Money
TTITLE22=You Gonna Miss Me When I'm Gone
TTITLE23=Mercy Mama
TTITLE24=Crying Won't Help You
EXTD=ID3G: 0
EXTT0=
EXTT1=
EXTT2=
EXTT3=
EXTT4=
EXTT5=
EXTT6=
EXTT7=
EXTT8=
EXTT9=
EXTT10=
EXTT11=
EXTT12=
EXTT13=
EXTT14=
EXTT15=
EXTT16=
EXTT17=
EXTT18=
EXTT19=
EXTT20=
EXTT21=
EXTT22=
EXTT23=
EXTT24=
PLAYORDER=
